<svg width="400" height="400" viewBox="0 0 400 400" fill="none" xmlns="http://www.w3.org/2000/svg">
<path d="M237.084 233.824C235.114 233.824 233.538 235.215 233.319 237.055C231.611 252.843 217.338 265.153 199.956 265.153C182.618 265.153 168.345 252.843 166.594 237.055C166.375 235.256 164.799 233.824 162.828 233.824H117.294C107.75 233.824 100 241.063 100 249.98V283.845C100 292.761 107.75 300 117.294 300H282.706C292.25 300 300 292.761 300 283.845V250.02C300 241.104 292.25 233.865 282.706 233.865H237.084V233.824Z" fill="#50CCAE"/>
<path d="M225.832 181.227L212.303 193.865V111.493C212.303 105.153 206.786 100 200 100C193.214 100 187.697 105.153 187.697 111.493V193.865L174.168 181.227C170.009 177.342 163.354 176.36 158.45 179.427C151.751 183.599 151.095 192.147 156.48 197.178L192.732 231.043C196.76 234.806 203.284 234.806 207.312 231.043L243.564 197.178C248.949 192.147 248.292 183.599 241.594 179.427C236.646 176.319 229.991 177.301 225.832 181.227Z" fill="#50CCAE"/>
</svg>
