<svg width="400" height="400" viewBox="0 0 400 400" fill="none" xmlns="http://www.w3.org/2000/svg">
<path d="M200 100C144.771 100 100 144.771 100 200C100 255.229 144.771 300 200 300C255.229 300 300 255.229 300 200C300 144.771 255.229 100 200 100ZM200 119.995C218.579 119.995 235.473 126.599 249.048 137.232C242.737 142.676 229.175 153.003 208.447 162.793C200.805 149.305 191.809 135.633 181.054 122.498C187.158 121.008 193.445 119.995 200 119.995ZM165.991 127.844C172.046 136.071 182.007 150.647 192.517 169.25C170.068 176.611 144.129 176.855 124.06 175.244C130.957 154.297 146.24 137.183 165.991 127.844ZM198.926 180.969C201.734 186.34 204.504 192.126 207.238 197.998C165.32 207.19 145.691 234.705 137.842 249.793C126.843 236.096 119.995 218.933 119.995 200C119.995 196.46 120.312 193.005 120.764 189.6C136.536 191.785 164.453 192.639 198.926 180.969ZM214.172 214.136C221.655 232.422 228.223 252.234 232.055 273.218C222.229 277.527 211.413 280.005 200 280.005C181.018 280.005 163.818 273.109 150.098 262.073C169.959 234.461 192.981 220.532 214.172 214.136ZM246.375 264.978C245.361 259.253 240.991 237.854 230.64 210.462C254.871 206.873 274.097 211.609 278.809 212.977C275.281 234.363 263.305 252.869 246.375 264.978ZM224.597 195.52C221.692 188.77 218.567 181.872 214.917 174.768C229.395 168.506 244.776 159.948 260.706 148.45C272.571 162.402 280.005 180.249 280.005 200C258.667 195.264 240.405 194.226 224.597 195.52Z" fill="#50CCAE"/>
</svg>
