<svg width="400" height="400" viewBox="0 0 400 400" fill="none" xmlns="http://www.w3.org/2000/svg">
<path d="M200 100C144.775 100 100 145.907 100 202.528C100 247.835 128.65 286.258 168.39 299.812C173.389 300.751 175.214 297.584 175.214 294.881C175.214 292.44 175.122 284.355 175.073 275.794C147.266 281.99 141.388 263.704 141.388 263.704C136.835 251.865 130.286 248.711 130.286 248.711C121.197 242.353 130.975 242.478 130.975 242.478C141.015 243.191 146.301 253.041 146.301 253.041C155.225 268.711 169.714 264.18 175.403 261.552C176.312 254.943 178.9 250.413 181.75 247.86C159.552 245.269 136.2 236.47 136.2 197.184C136.2 185.982 140.1 176.846 146.484 169.668C145.465 167.065 142.023 156.633 147.473 142.522C147.473 142.522 155.859 139.768 174.975 153.035C182.946 150.751 191.498 149.625 200 149.587C208.496 149.625 217.053 150.763 225.037 153.047C244.116 139.768 252.515 142.534 252.515 142.534C257.983 156.658 254.541 167.077 253.516 169.668C259.924 176.846 263.794 185.982 263.794 197.184C263.794 236.57 240.405 245.244 218.128 247.784C221.729 250.963 224.915 257.196 224.915 266.758C224.915 280.463 224.78 291.514 224.78 294.893C224.78 297.622 226.599 300.813 231.665 299.812C271.375 286.232 300 247.81 300 202.528C300 145.907 255.225 100 200 100Z" fill="#50CCAE"/>
</svg>
