<svg width="400" height="400" viewBox="0 0 400 400" fill="none" xmlns="http://www.w3.org/2000/svg">
<path d="M200.184 155C175.474 155 155 175.121 155 200.184C155 225.247 175.121 245.368 200.184 245.368C225.247 245.368 245.368 224.894 245.368 200.184C245.368 175.474 224.894 155 200.184 155ZM200.184 229.13C184.299 229.13 171.238 216.069 171.238 200.184C171.238 184.299 184.299 171.238 200.184 171.238C216.069 171.238 229.13 184.299 229.13 200.184C229.13 216.069 216.069 229.13 200.184 229.13Z" fill="#50CCAE" stroke="#50CCAE" stroke-width="5"/>
<path d="M255.237 157.474C260.891 157.474 265.474 152.891 265.474 147.237C265.474 141.583 260.891 137 255.237 137C249.583 137 245 141.583 245 147.237C245 152.891 249.583 157.474 255.237 157.474Z" fill="#50CCAE" stroke="#50CCAE" stroke-width="5"/>
<path d="M283.871 116.532C273.387 105.645 258.468 100 241.532 100H158.468C123.387 100 100 123.387 100 158.468V241.129C100 258.468 105.645 273.387 116.935 284.274C127.823 294.758 142.339 300 158.871 300H241.129C258.468 300 272.984 294.355 283.468 284.274C294.355 273.79 300 258.871 300 241.532V158.468C300 141.532 294.355 127.016 283.871 116.532ZM282.258 241.532C282.258 254.032 277.823 264.113 270.564 270.968C263.306 277.823 253.226 281.452 241.129 281.452H158.871C146.774 281.452 136.694 277.823 129.435 270.968C122.177 263.71 118.548 253.629 118.548 241.129V158.468C118.548 146.371 122.177 136.29 129.435 129.032C136.29 122.177 146.774 118.548 158.871 118.548H241.935C254.032 118.548 264.113 122.177 271.371 129.435C278.226 136.694 282.258 146.774 282.258 158.468V241.532Z" fill="#50CCAE" stroke="#50CCAE" stroke-width="5"/>
</svg>
