<svg width="400" height="400" viewBox="0 0 400 400" fill="none" xmlns="http://www.w3.org/2000/svg">
<path d="M277.778 123H122.222C116.329 123 110.676 125.333 106.509 129.485C102.341 133.638 100 139.27 100 145.143V255.857C100 261.73 102.341 267.362 106.509 271.514C110.676 275.667 116.329 278 122.222 278H277.778C283.671 278 289.324 275.667 293.491 271.514C297.659 267.362 300 261.73 300 255.857V145.143C300 139.27 297.659 133.638 293.491 129.485C289.324 125.333 283.671 123 277.778 123V123ZM277.778 167.286L200 222.643L122.222 167.286V145.143L200 200.5L277.778 145.143V167.286Z" fill="#50CCAE"/>
</svg>
