<svg width="400" height="400" viewBox="0 0 400 400" fill="none" xmlns="http://www.w3.org/2000/svg">
<path d="M259.153 188.652C226.919 169.509 173.749 167.749 142.978 177.088C138.035 178.587 132.81 175.798 131.313 170.857C129.816 165.912 132.602 160.69 137.547 159.188C172.872 148.466 231.591 150.536 268.7 172.564C273.146 175.204 274.602 180.944 271.968 185.38C269.331 189.825 263.586 191.291 259.152 188.652H259.153ZM258.097 217.005C255.836 220.675 251.037 221.826 247.372 219.572C220.5 203.054 179.521 198.268 147.727 207.919C143.605 209.164 139.249 206.841 137.997 202.724C137.4 200.746 137.613 198.611 138.587 196.789C139.562 194.966 141.219 193.604 143.196 193.002C179.515 181.98 224.666 187.318 255.532 206.286C259.197 208.543 260.35 213.343 258.097 217.005ZM245.861 244.234C245.435 244.934 244.875 245.542 244.214 246.025C243.552 246.508 242.802 246.856 242.006 247.049C241.21 247.242 240.384 247.275 239.575 247.148C238.765 247.021 237.989 246.736 237.291 246.308C213.808 231.957 184.251 228.715 149.442 236.666C148.644 236.849 147.819 236.872 147.012 236.736C146.205 236.599 145.434 236.304 144.741 235.869C144.048 235.434 143.448 234.867 142.974 234.2C142.5 233.532 142.163 232.778 141.981 231.981C141.797 231.183 141.773 230.357 141.91 229.549C142.046 228.742 142.34 227.97 142.776 227.276C143.211 226.583 143.779 225.983 144.447 225.509C145.115 225.035 145.869 224.698 146.668 224.517C184.76 215.81 217.434 219.557 243.793 235.663C244.491 236.09 245.099 236.65 245.581 237.312C246.063 237.974 246.411 238.724 246.603 239.52C246.795 240.316 246.828 241.142 246.701 241.951C246.574 242.76 246.289 243.536 245.861 244.234H245.861ZM199.998 100C144.772 100 100 144.771 100 199.998C100 255.231 144.772 300 199.999 300C255.228 300 300 255.231 300 199.998C300 144.772 255.229 100 199.999 100" fill="#50CCAE"/>
</svg>
